<?xml version="1.0" encoding="utf-8"?>
<!-- Generator: Adobe Illustrator 22.0.1, SVG Export Plug-In . SVG Version: 6.00 Build 0)  -->
<svg version="1.1" id="Layer_1" xmlns="http://www.w3.org/2000/svg" xmlns:xlink="http://www.w3.org/1999/xlink" x="0px" y="0px"
	 viewBox="0 0 629.5 113.8" style="enable-background:new 0 0 629.5 113.8;" xml:space="preserve">
<style type="text/css">
	.st0{fill:#FFFFFF;}
</style>
<g>
	<g>
		<path class="st0" d="M3.8,76.2h9.8l2.8,17.5c1.6,1.6,4.1,3.1,7.8,4.2c3.6,1.2,7.4,1.7,11.7,1.7c7,0,12.3-1.5,15.8-4.5
			c3.6-3.1,5.3-7.2,5.3-12.7c0-3.6-1-6.6-2.9-9.1c-1.9-2.5-4.6-4.8-7.9-6.7c-3.4-1.9-7.9-4.1-13.8-6.7c-5.1-2.2-9.6-4.7-13.7-7.3
			s-7.5-6-10.4-10.2C5.5,38.2,4,33.3,4,27.6c0-5.2,1.4-9.9,4.3-14c2.9-4.1,6.9-7.3,12.2-9.6s11.5-3.5,18.6-3.5
			c4.3,0,8.3,0.4,12.1,1.1c3.7,0.8,7.5,1.6,11.5,2.8c2,0.6,3.8,1.1,5,1.3l-1,23.6h-9.4l-3.3-16.7c-0.9-1-2.8-1.8-5.7-2.6
			c-2.9-0.8-6-1.2-9.4-1.2c-12.7,0-19.1,5-19.1,14.9c0,3.5,1,6.5,2.9,9c1.9,2.5,4.5,4.6,7.7,6.6s7.9,4.3,14.2,7.3
			c6.2,3,11.3,5.7,15.2,8.2c4,2.5,7.3,5.6,10.1,9.4c2.8,3.9,4.2,8.4,4.2,13.6c0,5-1.4,9.9-4.3,14.6c-2.9,4.6-7.2,8.5-13,11.4
			s-12.8,4.4-21.1,4.4c-5.1,0-9.7-0.5-13.9-1.3c-4.1-1-8.6-2.1-13-3.6c-3.1-1-5.1-1.5-6.2-1.6L3.8,76.2z"/>
		<path class="st0" d="M88.3,99.5V42.2l-10.1-2.7v-9L99,27.7h0.4l3.4,2.8v6l-0.1,3.4c2.1-2,4.8-4,8.2-5.8c3.4-1.8,6.9-3.4,10.7-4.5
			c3.8-1.2,7.1-1.7,10.2-1.7c5.2,0,9.4,0.9,12.5,2.6c3.2,1.7,5.6,4.4,7.2,8.1c1.8-1.6,4.3-3.3,7.6-4.9c3.2-1.6,6.7-3.1,10.3-4.1
			c3.7-1.1,7-1.6,10.2-1.6c6.1,0,10.9,1.2,14.3,3.4c3.4,2.2,5.8,5.7,7.1,10.3c1.3,4.6,2,10.9,2,18.8v39.3l10.1,1.2v7.4h-34.7v-7.4
			l8.3-1.3V60.9c0-5.4-0.4-9.6-1.2-12.7c-0.8-3.1-2.3-5.5-4.5-7c-2.2-1.5-5.4-2.4-9.5-2.4c-2.9,0-6,0.7-9.4,2
			c-3.4,1.3-6.3,3-8.8,4.7c0.9,4,1.3,9.1,1.3,15.4v38.7l10.3,1.3v7.4h-35.9v-7.4l9.4-1.3v-39c0-5.4-0.4-9.5-1.1-12.6
			c-0.7-3.1-2.1-5.3-4.1-6.8c-2-1.5-5-2.3-9-2.3c-3.3,0-6.7,0.8-10.4,2.2s-6.8,3.3-9.5,5.4v53.2l9.4,1.3v7.4H79.4v-7.4L88.3,99.5z"
			/>
		<path class="st0" d="M264.3,54.7c0-3.8-0.5-6.7-1.3-9c-1-2.2-2.5-3.8-4.7-4.7s-5.5-1.5-9.6-1.5c-8,0-16.3,1.9-25.2,5.8h-0.1
			l-3.6-6.5c1.3-1.2,3.7-2.6,7.3-4.3c3.6-1.8,7.7-3.4,12.2-4.7c4.6-1.3,9-2,13.1-2c6.8,0,12.2,0.9,16.2,2.7c4,1.7,6.7,4.6,8.5,8.6
			c1.7,4,2.6,9.3,2.6,15.9v44h8.6v6.9c-6.8,1.6-12.1,2.5-15.5,2.5c-2,0-3.5-0.2-4.5-0.5c-1.1-0.3-1.8-1-2.3-2
			c-0.5-1-0.8-2.6-0.8-4.7v-3.4c-2.5,2.5-5.9,4.9-10,7.1c-4.1,2.3-8.8,3.5-13.9,3.5c-4.5,0-8.6-0.9-12.3-2.5
			c-3.7-1.6-6.7-4.2-8.9-7.6c-2.2-3.5-3.3-7.7-3.3-12.9c0-6.3,2.2-11.5,6.6-15.5c4.3-4,10-7,17.2-9c7-1.9,14.9-2.9,23.6-2.9v-3.2
			H264.3z M264.3,65.8c-6.9,0-12.6,0.8-17.1,2.4c-4.4,1.5-7.7,3.7-9.6,6.3c-2,2.6-3,5.5-3,8.9c0,4.9,1.3,8.6,3.7,10.9
			s5.8,3.5,9.9,3.5c2.2,0,4.9-0.6,8-1.8c3.1-1.3,5.9-2.8,8.2-4.5L264.3,65.8L264.3,65.8z"/>
		<path class="st0" d="M306.3,99.3V42.1l-10-2.8v-8.5l20.1-2.8h0.4l3.4,2.8v4.6l-0.1,9.5h0.1c0.9-1.6,2.5-3.8,4.9-6.5
			c2.4-2.7,5.6-5.2,9.4-7.4c3.9-2.2,8-3.4,12.5-3.4c1.8,0,3.4,0.3,4.6,0.8v17.9c-0.9-0.7-2.1-1.3-3.6-1.6c-1.4-0.5-3.1-0.7-4.7-0.7
			c-4.7,0-8.9,0.6-12.3,1.8c-3.5,1.3-6.4,2.7-8.7,4.5v49.5h18.6v8.2h-45.7v-7.6L306.3,99.3z"/>
		<path class="st0" d="M357.6,37.9v-6.7c1.3-0.4,2.8-0.9,4.5-1.5s2.8-1.2,3.4-1.5c1.5-1.2,2.8-3.2,3.9-5.9c0.7-1.7,1.6-4.4,2.8-8.1
			c1.2-3.8,1.9-6.6,2.4-8.5h9.2l0.1,22.1h23.7v10.1h-23.6v41.6c0,5.6,0.2,9.4,0.5,11.7c0.3,2.2,1,3.6,2,4.2c1,0.6,2.9,1,5.5,1h0.1
			c2.4,0,5.2-0.3,8.3-0.9c3.1-0.6,5.5-1.3,7.1-1.8h0.1l2.4,6.7c-1.4,1.2-3.6,2.4-6.4,3.6c-2.8,1.2-5.9,2.2-9.1,3
			c-3.3,0.8-6.3,1.2-9,1.2h-0.1c-5.9,0-10.2-1.3-13.2-3.8c-3-2.5-4.4-6.7-4.4-12.6V37.8L357.6,37.9L357.6,37.9z"/>
	</g>
	<g>
		<path class="st0" d="M549,54.7c0-3.8-0.5-6.7-1.3-9c-1-2.2-2.5-3.8-4.7-4.7c-2.2-1-5.5-1.5-9.6-1.5c-8,0-16.3,1.9-25.2,5.8H508
			l-3.6-6.5c1.3-1.2,3.7-2.6,7.3-4.3c3.6-1.8,7.7-3.4,12.2-4.7c4.6-1.3,9-2,13.1-2c6.8,0,12.2,0.9,16.2,2.7c4,1.7,6.7,4.6,8.5,8.6
			s2.6,9.3,2.6,15.9v44h8.6v6.9c-6.8,1.6-12.1,2.5-15.5,2.5c-2,0-3.5-0.2-4.5-0.5c-1.1-0.3-1.8-1-2.3-2c-0.5-1-0.8-2.6-0.8-4.7v-3.4
			c-2.5,2.5-5.9,4.9-10,7.1c-4.1,2.3-8.8,3.5-13.9,3.5c-4.5,0-8.6-0.9-12.3-2.5c-3.7-1.6-6.7-4.2-8.9-7.6c-2.2-3.5-3.3-7.7-3.3-12.9
			c0-6.3,2.2-11.5,6.6-15.5c4.3-4,10-7,17.2-9c7-1.9,14.9-2.9,23.6-2.9v-3.2H549z M549,65.8c-6.9,0-12.6,0.8-17.1,2.4
			c-4.4,1.5-7.7,3.7-9.6,6.3c-2,2.6-3,5.5-3,8.9c0,4.9,1.3,8.6,3.7,10.9c2.4,2.3,5.8,3.5,9.9,3.5c2.2,0,4.9-0.6,8-1.8
			c3.1-1.3,5.9-2.8,8.2-4.5L549,65.8L549,65.8z"/>
		<path class="st0" d="M574.4,37.9v-6.7c1.3-0.4,2.8-0.9,4.5-1.5c1.7-0.7,2.8-1.2,3.4-1.5c1.5-1.2,2.8-3.2,3.9-5.9
			c0.7-1.7,1.6-4.4,2.8-8.1c1.2-3.8,1.9-6.6,2.4-8.5h9.2l0.1,22.1h23.7v10.1h-23.6v41.6c0,5.6,0.2,9.4,0.5,11.7c0.3,2.2,1,3.6,2,4.2
			c1,0.6,2.9,1,5.5,1h0.1c2.4,0,5.2-0.3,8.3-0.9c3.1-0.6,5.5-1.3,7.1-1.8h0.1l2.4,6.7c-1.4,1.2-3.6,2.4-6.4,3.6
			c-2.8,1.2-5.9,2.2-9.1,3c-3.3,0.8-6.3,1.2-9,1.2h-0.1c-5.9,0-10.2-1.3-13.2-3.8c-3-2.5-4.4-6.7-4.4-12.6V37.8L574.4,37.9
			L574.4,37.9z"/>
	</g>
	<path class="st0" d="M442.9,33.9c4-1.4,15.7,7.5,19.5,9.2c3.8,1.7,6.7-1.5,13.7-4.2c6.8-2.7,10.3-0.7,12.8-6.2
		c2.3-4.8,5.8-13.7,8.1-16c-8.1-5.1-17.5-8-27.8-8c-28.9,0-52.3,23.4-52.3,52.3s23.4,52.3,52.3,52.3c8.7,0,16.8-2.1,23.9-5.8
		c-2.5-3.5-4.4-7-5.7-9.4c-2.5-4.6-8.4-4.7-12.6-7.2c-4.2-2.5-10.4-4.6-16.2-11.6c-5.8-6.9-6.8-13.6-6.2-16.3
		c0.6-2.7-4-5.4-7.2-10.2C441.8,47.8,438.8,35.2,442.9,33.9z"/>
</g>
</svg>
